<svg width="389" height="240" viewBox="0 0 389 240" fill="none" xmlns="http://www.w3.org/2000/svg">
<g clip-path="url(#clip0)">
<rect width="389" height="240" fill="white"/>
<path d="M0 0H389.656V240.091H0V0Z" fill="#F2F1FE"/>
<path d="M241.821 94.2712C240.508 80.5153 229.278 69.3445 215.342 67.9396C215.331 67.9373 215.316 67.9373 215.305 67.9349C213.583 67.7646 212.095 69.2073 212.197 70.9363C212.32 72.9822 212.036 75.1416 211.154 77.3909C208.746 83.538 202.939 87.9207 196.336 88.0507C187.228 88.2329 179.784 80.9032 179.784 71.8351C179.784 71.5276 179.794 71.2249 179.813 70.9221C179.917 69.2003 178.42 67.7646 176.702 67.9349C176.691 67.9373 176.679 67.9373 176.665 67.9396C162.729 69.3445 151.497 80.5153 150.186 94.2712C149.238 104.217 153.332 113.254 160.238 119.2C162.353 121.021 163.569 123.621 163.566 126.39C163.566 126.407 163.566 126.421 163.566 126.438C163.566 142.315 168.245 156.48 175.565 165.766C178.701 169.744 185.191 167.471 185.191 162.433C185.191 154.266 185.191 143.76 185.191 137.464C185.191 131.783 189.536 126.828 195.283 126.461C201.582 126.059 206.816 130.979 206.816 137.102V162.424C206.816 167.462 213.308 169.742 216.442 165.763C223.762 156.478 228.441 142.313 228.441 126.435C228.441 126.419 228.441 126.404 228.441 126.388C228.438 123.618 229.654 121.019 231.769 119.198C238.673 113.254 242.769 104.217 241.821 94.2712Z" fill="white" stroke="#181443" stroke-width="4.3263" stroke-miterlimit="10" stroke-linecap="round" stroke-linejoin="round"/>
<path d="M160.863 94.9522C160.863 84.6447 169.335 76.2886 179.784 76.2886" stroke="#40B8C9" stroke-width="4.3263" stroke-miterlimit="10" stroke-linecap="round" stroke-linejoin="round" stroke-dasharray="16.22 16.22"/>
<path d="M207.788 49.042C206.837 49.1815 205.901 49.3636 204.981 49.5907C199.063 51.0429 192.947 51.0429 187.029 49.5907C186.111 49.366 185.177 49.1815 184.229 49.0443C181.852 48.6967 179.754 50.5486 179.787 52.9516C179.81 54.6664 180.13 56.4544 180.853 58.304C183.261 64.4511 189.068 68.8338 195.671 68.9639C204.78 69.146 212.223 61.8163 212.223 52.7482C212.223 52.734 212.223 52.7198 212.223 52.7056C212.216 50.402 210.066 48.7085 207.788 49.042Z" fill="#40B8C9" stroke="#40B8C9" stroke-width="4.3263" stroke-miterlimit="10" stroke-linecap="round" stroke-linejoin="round"/>
</g>
<defs>
<clipPath id="clip0">
<rect width="389" height="240" fill="white"/>
</clipPath>
</defs>
</svg>
