<svg width="389" height="240" viewBox="0 0 389 240" fill="none" xmlns="http://www.w3.org/2000/svg">
<g clip-path="url(#clip0)">
<rect width="389" height="240" fill="white"/>
<path d="M0 0H389.656V240.091H0V0Z" fill="#F2F1FE"/>
<path d="M179.106 72.0793C188.853 72.0793 197.472 76.8041 202.688 84.0321" stroke="#181443" stroke-width="4.29003" stroke-miterlimit="10" stroke-linecap="round" stroke-linejoin="round"/>
<path d="M239.236 97.4876C237.965 84.2906 227.08 73.576 213.571 72.2299C206.625 71.5374 200.125 73.2642 194.828 76.6369C189.53 73.2642 183.028 71.5374 176.085 72.2299C162.576 73.576 151.69 84.2906 150.419 97.4876C149.499 107.027 153.468 115.697 160.162 121.402C162.213 123.15 163.391 125.644 163.388 128.3C163.388 128.315 163.388 128.33 163.388 128.345C163.388 143.575 167.921 157.162 175.017 166.069C178.057 169.885 184.35 167.705 184.35 162.873C184.35 155.039 184.35 144.96 184.35 138.922C184.35 133.475 188.562 128.72 194.132 128.366C200.236 127.98 205.308 132.698 205.308 138.574V162.864C205.308 167.696 211.601 169.882 214.641 166.069C221.737 157.162 226.27 143.575 226.27 128.345C226.27 128.33 226.27 128.315 226.27 128.3C226.267 125.644 227.445 123.15 229.496 121.402C236.184 115.697 240.154 107.027 239.236 97.4876Z" fill="white" stroke="#181443" stroke-width="4.29003" stroke-miterlimit="10" stroke-linecap="round" stroke-linejoin="round"/>
<path d="M160.766 100.209C160.766 90.3219 168.977 82.3054 179.108 82.3054" stroke="#40B8C9" stroke-width="4.29003" stroke-miterlimit="10" stroke-linecap="round" stroke-linejoin="round" stroke-dasharray="16.52 16.52"/>
<path d="M194.822 44.6699V51.5202" stroke="#40B8C9" stroke-width="4.29003" stroke-miterlimit="10" stroke-linecap="round" stroke-linejoin="round"/>
<path d="M194.823 188.571V195.421" stroke="#40B8C9" stroke-width="4.29003" stroke-miterlimit="10" stroke-linecap="round" stroke-linejoin="round"/>
<path d="M169.045 49.2148L171.39 55.6544" stroke="#40B8C9" stroke-width="4.29003" stroke-miterlimit="10" stroke-linecap="round" stroke-linejoin="round"/>
<path d="M218.261 184.437L220.606 190.877" stroke="#40B8C9" stroke-width="4.29003" stroke-miterlimit="10" stroke-linecap="round" stroke-linejoin="round"/>
<path d="M146.375 62.3035L150.779 67.5529" stroke="#40B8C9" stroke-width="4.29003" stroke-miterlimit="10" stroke-linecap="round" stroke-linejoin="round"/>
<path d="M238.875 172.538L243.279 177.787" stroke="#40B8C9" stroke-width="4.29003" stroke-miterlimit="10" stroke-linecap="round" stroke-linejoin="round"/>
<path d="M129.548 82.3567L135.484 85.7833" stroke="#40B8C9" stroke-width="4.29003" stroke-miterlimit="10" stroke-linecap="round" stroke-linejoin="round"/>
<path d="M254.17 154.307L260.106 157.734" stroke="#40B8C9" stroke-width="4.29003" stroke-miterlimit="10" stroke-linecap="round" stroke-linejoin="round"/>
<path d="M120.596 106.958L127.345 108.145" stroke="#40B8C9" stroke-width="4.29003" stroke-miterlimit="10" stroke-linecap="round" stroke-linejoin="round"/>
<path d="M262.311 131.946L269.059 133.136" stroke="#40B8C9" stroke-width="4.29003" stroke-miterlimit="10" stroke-linecap="round" stroke-linejoin="round"/>
<path d="M120.597 133.136L127.346 131.946" stroke="#40B8C9" stroke-width="4.29003" stroke-miterlimit="10" stroke-linecap="round" stroke-linejoin="round"/>
<path d="M262.311 108.145L269.059 106.958" stroke="#40B8C9" stroke-width="4.29003" stroke-miterlimit="10" stroke-linecap="round" stroke-linejoin="round"/>
<path d="M129.546 157.734L135.482 154.308" stroke="#40B8C9" stroke-width="4.29003" stroke-miterlimit="10" stroke-linecap="round" stroke-linejoin="round"/>
<path d="M254.167 85.7833L260.103 82.3567" stroke="#40B8C9" stroke-width="4.29003" stroke-miterlimit="10" stroke-linecap="round" stroke-linejoin="round"/>
<path d="M146.376 177.787L150.78 172.537" stroke="#40B8C9" stroke-width="4.29003" stroke-miterlimit="10" stroke-linecap="round" stroke-linejoin="round"/>
<path d="M238.875 67.5526L243.28 62.3032" stroke="#40B8C9" stroke-width="4.29003" stroke-miterlimit="10" stroke-linecap="round" stroke-linejoin="round"/>
<path d="M169.048 190.876L171.392 184.437" stroke="#40B8C9" stroke-width="4.29003" stroke-miterlimit="10" stroke-linecap="round" stroke-linejoin="round"/>
<path d="M218.265 55.6539L220.609 49.2144" stroke="#40B8C9" stroke-width="4.29003" stroke-miterlimit="10" stroke-linecap="round" stroke-linejoin="round"/>
</g>
<defs>
<clipPath id="clip0">
<rect width="389" height="240" fill="white"/>
</clipPath>
</defs>
</svg>
